# xmcd CD database file
#
# Track frame offsets:
#	150
#	35222
#	62736
#	96683
#	132583
#	141653
#	191755
#	218444
#	241292
#	281448
#
# Disc length: 4070 seconds
#
# Revision: 0
# Processed by: cddbd v1.5.2PL0 Copyright (c) Steve Scherf et al.
# Submitted via: CDex 2.00
#
DISCID=a60fe40a
DTITLE=Michele Di Toro and Yuri Goloubev - Duonomics
DYEAR=2018
DGENRE=Jazz
TTITLE0=Gentle Rain
TTITLE1=B Minor Waltz
TTITLE2=If I Should Lose You
TTITLE3=You Don't Know What Love Is
TTITLE4=Nocturnal
TTITLE5=What Are You Doing the Rest of Your Life?
TTITLE6=ShwinGer
TTITLE7=For All We Know
TTITLE8=Darn That Dream
TTITLE9=Like a Lover
EXTD=YEAR: 2018
EXTT0=
EXTT1=
EXTT2=
EXTT3=
EXTT4=
EXTT5=
EXTT6=
EXTT7=
EXTT8=
EXTT9=
PLAYORDER=
